<svg data-v-fde0c5aa="" xmlns="http://www.w3.org/2000/svg" viewBox="0 0 300 300" class="iconLeft"><!----><defs data-v-fde0c5aa=""><!----></defs><rect data-v-fde0c5aa="" fill="transparent" x="0" y="0" width="300px" height="300px" class="logo-background-square"></rect><defs data-v-fde0c5aa=""><!----></defs><g data-v-fde0c5aa="" id="2d2e9221-0073-41d2-81dd-7bb3362c7e8f" fill="#000000" transform="matrix(2.1757409399639887,0,0,2.1757409399639887,89.0955392190455,132.22419739197247)"><path d="M5.14 13.47L7 2.87L4.97 2.87L4.24 6.97L3.01 6.97L3.74 2.87L1.71 2.87L-0.15 13.47L1.88 13.47L2.63 9.11L3.86 9.11L3.11 13.47ZM11.24 12.78C11.69 12.14 11.94 11.49 12.43 8.71C12.88 6.16 13.02 5.15 13.02 4.51C13.02 3.00 12.36 2.69 10.92 2.69C9.70 2.69 9.09 2.91 8.65 3.56C8.20 4.21 7.95 4.83 7.45 7.71C7.01 10.16 6.87 11.20 6.87 11.84C6.87 13.36 7.56 13.65 8.99 13.65C10.19 13.65 10.81 13.44 11.24 12.78ZM9.94 11.03C9.86 11.21 9.72 11.28 9.41 11.28C9.00 11.28 8.95 11.14 8.95 10.85C8.95 10.54 9.02 9.95 9.35 8.11C9.76 5.77 9.87 5.39 10.01 5.12C10.08 4.94 10.22 4.86 10.54 4.86C10.85 4.86 10.99 4.94 10.99 5.22C10.99 5.50 10.93 6.03 10.51 8.40C10.16 10.37 10.07 10.75 9.94 11.03ZM20.44 13.47L22.29 2.87L19.45 2.87L17.65 7.48L17.57 7.48L17.50 2.87L14.76 2.87L12.89 13.47L14.70 13.47L15.82 7.11L15.89 7.11L16.23 13.47L17.11 13.47L19.67 7.11L19.74 7.11L18.62 13.47ZM26.10 13.47L26.50 11.12L24.28 11.12L24.63 9.11L26.82 9.11L27.20 6.97L25.00 6.97L25.34 5.11L27.58 5.11L27.97 2.87L23.76 2.87L21.90 13.47ZM35.55 13.47L37.41 2.87L35.38 2.87L34.65 6.97L33.42 6.97L34.15 2.87L32.12 2.87L30.25 13.47L32.28 13.47L33.04 9.11L34.27 9.11L33.52 13.47ZM42.03 13.47L42.94 2.87L39.61 2.87L36.72 13.47L38.72 13.47L39.30 11.02L40.25 11.02L40.00 13.47ZM40.54 8.88L39.76 8.88L40.75 5.08L40.89 5.08ZM48.44 13.47C48.44 12.15 48.61 10.91 48.61 9.91C48.61 9.00 48.55 8.78 48.30 8.50L48.31 8.41C48.93 8.06 49.24 7.91 49.50 6.36C49.70 5.24 49.76 4.82 49.76 4.31C49.76 3.35 49.27 2.87 47.96 2.87L45.08 2.87L43.22 13.47L45.19 13.47L45.92 9.34L46.23 9.34C46.41 9.34 46.51 9.41 46.51 9.83C46.51 10.18 46.31 12.33 46.31 13.08C46.31 13.24 46.33 13.36 46.34 13.47ZM46.26 7.36L46.66 5.05L47.17 5.05C47.46 5.05 47.63 5.11 47.63 5.49C47.63 5.61 47.61 5.77 47.50 6.34C47.40 6.96 47.18 7.36 46.82 7.36ZM57.18 13.47L59.02 2.87L56.18 2.87L54.39 7.48L54.31 7.48L54.24 2.87L51.49 2.87L49.63 13.47L51.44 13.47L52.56 7.11L52.63 7.11L52.96 13.47L53.84 13.47L56.41 7.11L56.48 7.11L55.36 13.47ZM63.28 12.78C63.73 12.14 63.98 11.49 64.47 8.71C64.92 6.16 65.06 5.15 65.06 4.51C65.06 3.00 64.40 2.69 62.96 2.69C61.74 2.69 61.12 2.91 60.69 3.56C60.24 4.21 59.99 4.83 59.49 7.71C59.05 10.16 58.91 11.20 58.91 11.84C58.91 13.36 59.60 13.65 61.03 13.65C62.23 13.65 62.85 13.44 63.28 12.78ZM61.98 11.03C61.89 11.21 61.75 11.28 61.45 11.28C61.04 11.28 60.98 11.14 60.98 10.85C60.98 10.54 61.05 9.95 61.39 8.11C61.80 5.77 61.91 5.39 62.05 5.12C62.12 4.94 62.26 4.86 62.58 4.86C62.89 4.86 63.03 4.94 63.03 5.22C63.03 5.50 62.97 6.03 62.55 8.40C62.20 10.37 62.10 10.75 61.98 11.03ZM70.11 13.47L71.97 2.87L70.17 2.87L69.51 6.72L69.43 6.72L68.75 2.87L66.81 2.87L64.95 13.47L66.75 13.47L67.76 7.63L67.84 7.63L69.09 13.47ZM75.03 13.47L75.68 9.67L78.54 2.94L78.55 2.87L76.58 2.87L75.25 6.30L75.12 6.30L75.07 2.87L73.02 2.87L73.01 2.94L73.60 9.45L72.90 13.47Z"></path></g><defs data-v-fde0c5aa=""><!----></defs><g data-v-fde0c5aa="" id="70fc61c5-eed4-4f7b-8767-89efb1664a58" stroke="none" fill="#0D7CE9" transform="matrix(1.1177868145338277,0,0,1.1177868145338277,40,132.11541096745876)"><path d="M6.651 19.325h6.024V32h6.65V19.325h6.024V32H32V0h-6.651v12.675h-6.024V0h-6.65v12.675H6.651V0H0v32h6.651z"></path></g><!----></svg>